<mxfile host="app.diagrams.net" modified="2023-12-18T12:06:07.085Z" agent="Mozilla/5.0 (Windows NT 10.0; Win64; x64) AppleWebKit/537.36 (KHTML, like Gecko) Chrome/120.0.0.0 Safari/537.36" version="21.6.9" etag="YThAXdzqOknfdLYpyt1I" type="github">
  <diagram name="Page-1" id="QuKHwTkaPhHEDE1cdfS-">
    <mxGraphModel>
      <root>
        <mxCell id="0" />
        <mxCell id="1" parent="0" />
      </root>
    </mxGraphModel>
  </diagram>
</mxfile>
